<svg width="65" height="53" viewBox="0 0 65 53" fill="none" xmlns="http://www.w3.org/2000/svg">
<path d="M6.32227 50L5.70117 47.9609H2.57812L1.95703 50H0L3.02344 41.3984H5.24414L8.2793 50H6.32227ZM5.26758 46.4375C4.69336 44.5898 4.36914 43.5449 4.29492 43.3027C4.22461 43.0605 4.17383 42.8691 4.14258 42.7285C4.01367 43.2285 3.64453 44.4648 3.03516 46.4375H5.26758ZM16.4707 45.6348C16.4707 47.0449 16.0684 48.125 15.2637 48.875C14.4629 49.625 13.3047 50 11.7891 50H9.36328V41.4336H12.0527C13.4512 41.4336 14.5371 41.8027 15.3105 42.541C16.084 43.2793 16.4707 44.3105 16.4707 45.6348ZM14.584 45.6816C14.584 43.8418 13.7715 42.9219 12.1465 42.9219H11.1797V48.5H11.959C13.709 48.5 14.584 47.5605 14.584 45.6816ZM23.1328 41.4336H24.9668L22.0547 50H20.0742L17.168 41.4336H19.002L20.6133 46.5312C20.7031 46.832 20.7949 47.1836 20.8887 47.5859C20.9863 47.9844 21.0469 48.2617 21.0703 48.418C21.1133 48.0586 21.2598 47.4297 21.5098 46.5312L23.1328 41.4336ZM30.9844 50H26.0508V41.4336H30.9844V42.9219H27.8672V44.8027H30.7676V46.291H27.8672V48.5H30.9844V50ZM34.5938 45.2363H35.1797C35.7539 45.2363 36.1777 45.1406 36.4512 44.9492C36.7246 44.7578 36.8613 44.457 36.8613 44.0469C36.8613 43.6406 36.7207 43.3516 36.4395 43.1797C36.1621 43.0078 35.7305 42.9219 35.1445 42.9219H34.5938V45.2363ZM34.5938 46.7129V50H32.7773V41.4336H35.2734C36.4375 41.4336 37.2988 41.6465 37.8574 42.0723C38.416 42.4941 38.6953 43.1367 38.6953 44C38.6953 44.5039 38.5566 44.9531 38.2793 45.3477C38.002 45.7383 37.6094 46.0449 37.1016 46.2676C38.3906 48.1934 39.2305 49.4375 39.6211 50H37.6055L35.5605 46.7129H34.5938ZM44.0039 50H42.1875V42.9453H39.8613V41.4336H46.3301V42.9453H44.0039V50ZM47.6484 50V41.4336H49.4648V50H47.6484ZM56.6777 47.6211C56.6777 48.3945 56.3984 49.0039 55.8398 49.4492C55.2852 49.8945 54.5117 50.1172 53.5195 50.1172C52.6055 50.1172 51.7969 49.9453 51.0938 49.6016V47.9141C51.6719 48.1719 52.1602 48.3535 52.5586 48.459C52.9609 48.5645 53.3281 48.6172 53.6602 48.6172C54.0586 48.6172 54.3633 48.541 54.5742 48.3887C54.7891 48.2363 54.8965 48.0098 54.8965 47.709C54.8965 47.541 54.8496 47.3926 54.7559 47.2637C54.6621 47.1309 54.5234 47.0039 54.3398 46.8828C54.1602 46.7617 53.791 46.5684 53.2324 46.3027C52.709 46.0566 52.3164 45.8203 52.0547 45.5938C51.793 45.3672 51.584 45.1035 51.4277 44.8027C51.2715 44.502 51.1934 44.1504 51.1934 43.748C51.1934 42.9902 51.4492 42.3945 51.9609 41.9609C52.4766 41.5273 53.1875 41.3105 54.0938 41.3105C54.5391 41.3105 54.9629 41.3633 55.3652 41.4688C55.7715 41.5742 56.1953 41.7227 56.6367 41.9141L56.0508 43.3262C55.5938 43.1387 55.2148 43.0078 54.9141 42.9336C54.6172 42.8594 54.3242 42.8223 54.0352 42.8223C53.6914 42.8223 53.4277 42.9023 53.2441 43.0625C53.0605 43.2227 52.9688 43.4316 52.9688 43.6895C52.9688 43.8496 53.0059 43.9902 53.0801 44.1113C53.1543 44.2285 53.2715 44.3438 53.4316 44.457C53.5957 44.5664 53.9805 44.7656 54.5859 45.0547C55.3867 45.4375 55.9355 45.8223 56.2324 46.209C56.5293 46.5918 56.6777 47.0625 56.6777 47.6211ZM63.1641 50H58.2305V41.4336H63.1641V42.9219H60.0469V44.8027H62.9473V46.291H60.0469V48.5H63.1641V50Z" fill="#BBBBBB"/>
<path fill-rule="evenodd" clip-rule="evenodd" d="M64.7099 27.7507C64.7099 29.9717 62.9216 31.7733 60.713 31.7772C58.5044 31.7812 56.7098 29.9859 56.702 27.7649C56.6941 25.5439 58.4761 23.736 60.6846 23.7241C62.8931 23.7123 64.6941 25.5011 64.7098 27.7221M62.899 27.7507C62.899 28.9541 61.9195 29.9303 60.7098 29.9325C59.5001 29.9346 58.5171 28.9619 58.5128 27.7584C58.5085 26.5549 59.4846 25.5753 60.6942 25.5689C61.9039 25.5625 62.8904 26.5317 62.899 27.7352" fill="#F2A03F"/>
<path fill-rule="evenodd" clip-rule="evenodd" d="M1.0587 30.3979C1.64551 31.0262 2.37721 31.4514 3.16227 31.6201L3.16226 31.6201C3.29349 31.6483 3.72298 31.664 4.11668 31.6548C4.70751 31.6412 4.90889 31.6112 5.27001 31.4832C5.87297 31.2696 6.3025 31.0003 6.7675 30.5443C7.2392 30.0818 7.53755 29.6092 7.76592 28.963L7.93436 28.4863L7.95028 25.0266L7.96621 21.5668L12.318 25.9054C15.0368 28.616 16.8502 30.3778 17.1507 30.6005C17.7803 31.0674 18.5818 31.464 19.1519 31.5908C19.7407 31.7218 20.652 31.6848 21.2077 31.5074C22.3588 31.1398 23.3635 30.1406 23.7527 28.9763C23.8994 28.5378 23.9164 28.4018 23.9157 27.681C23.915 26.9993 23.8941 26.8163 23.7796 26.488C23.4775 25.6219 23.4449 25.5852 18.9161 21.0064C16.1297 18.1892 14.6626 16.665 14.696 16.622C14.7241 16.5858 16.6257 14.2873 18.9216 11.5143C21.2176 8.74137 23.1911 6.33892 23.3071 6.17556C24.1007 5.05846 24.1758 3.38437 23.4913 2.07276C23.2266 1.56569 22.5407 0.850885 22.0305 0.550447C20.9088 -0.11002 19.4228 -0.176536 18.2561 0.381499C17.6137 0.68878 17.1789 1.0548 16.4632 1.891C13.9365 4.84312 11.8921 7.19429 10.7515 8.45988C9.50244 9.84581 8.28764 11.262 8.12638 11.5203C8.087 11.5833 8.03441 11.6349 8.00949 11.6349C7.98457 11.6349 7.96385 9.81627 7.96315 7.59351C7.962 3.11376 7.96007 3.08712 7.57819 2.28299C6.60085 0.224978 4.1406 -0.593797 2.10045 0.459986C1.49556 0.772427 0.734703 1.54358 0.432681 2.15034C0.36818 2.27992 0.313248 2.36878 0.266472 2.46174C-0.0278477 3.04668 0.000757667 3.7941 0.000757667 15.8701V28.3671L0.140394 28.8144C0.343863 29.4663 0.598031 29.9046 1.0587 30.3979ZM4.87277 29.6961C5.34545 29.4795 5.72224 29.1114 5.95199 28.6419L6.14483 28.2478L6.16072 15.9894C6.17641 3.88973 6.17508 3.7261 6.05768 3.34338C5.99166 3.12818 5.8386 2.82516 5.7137 2.66238C4.54757 1.14265 2.18458 1.72047 1.82286 3.6138C1.77299 3.87486 1.75959 7.19716 1.77258 16.0789L1.79029 28.1881L1.95338 28.5362C2.25518 29.1804 2.71491 29.6051 3.32653 29.8045C3.72814 29.9355 4.46275 29.884 4.87277 29.6961ZM21.9665 4.89429C21.8645 5.09722 20.2068 7.14518 17.6211 10.2629C15.3218 13.0352 13.4176 15.3119 13.3895 15.3224C13.3285 15.345 12.8663 14.7277 12.5853 14.2483C11.8712 13.0298 11.628 11.7974 11.893 10.7396C12.0503 10.1114 12.3631 9.46482 12.7244 9.02087C12.876 8.83457 14.226 7.25759 15.7244 5.51647C17.698 3.2231 18.5287 2.29985 18.7391 2.16594C19.8879 1.43469 21.4029 1.85573 21.9596 3.06096C22.1107 3.3881 22.1313 3.50101 22.1313 3.99953C22.1313 4.49954 22.1119 4.60481 21.9665 4.89429ZM21.9375 28.6441C21.7067 29.1129 21.3303 29.4803 20.8605 29.6954C20.3889 29.9113 19.7502 29.9383 19.302 29.7612C18.7682 29.5502 18.3087 29.2501 17.7903 28.7737C16.719 27.7892 9.59409 20.6408 9.21012 20.1652C8.75725 19.6043 8.31687 18.7765 8.17868 18.2264C7.92799 17.2283 7.91246 15.9688 8.14092 15.1654C8.35629 14.408 8.91407 13.4171 9.65114 12.4823C9.81398 12.2757 9.95716 12.1167 9.96932 12.1289C9.98148 12.141 10.0314 12.3804 10.0803 12.6607C10.2918 13.8735 10.9483 15.2318 11.8848 16.394C12.0509 16.6 14.3514 18.9543 16.9971 21.6257L17.86 22.4966C21.5747 26.245 22.0716 26.7465 22.1283 27.2936C22.1371 27.3781 22.1353 27.4636 22.1333 27.5624V27.5625C22.1323 27.609 22.1313 27.6585 22.1313 27.7121C22.1313 28.1987 22.1128 28.288 21.9375 28.6441Z" fill="#584DFC"/>
<path fill-rule="evenodd" clip-rule="evenodd" d="M29.3693 27.5525C30.2934 29.6905 32.4175 31.1401 35.2802 31.5864C36.1199 31.719 37.2346 31.7148 38.5459 31.7097C39.2166 31.7071 39.9387 31.7044 40.7017 31.7196C41.5944 31.6988 42.2427 31.5863 42.8619 31.2253C43.567 30.8141 44.2033 30.1998 44.5883 29.4239C44.9698 28.6549 45.0832 27.5538 44.866 26.7266C44.6175 25.4577 43.3231 23.7707 41.3121 23.731C40.9452 23.7135 40.3721 23.7115 39.3593 23.7079C38.8858 23.7063 38.3162 23.7042 37.6268 23.7002L33.6759 23.6768L33.66 13.4653L33.6441 3.25389L33.504 2.83633C33.2669 2.12923 33.0231 1.73745 32.4813 1.19238C31.6755 0.381704 30.7825 0.00289726 29.6773 0.00289726C28.572 0.00289726 27.679 0.381704 26.8732 1.19238C26.3176 1.75132 26.0733 2.15092 25.8501 2.86615L25.7104 3.31354V11.3665C25.7104 18.9131 25.7174 19.4606 25.8204 20.0755C26.1581 22.0917 26.9935 23.5227 28.3679 24.4395L28.7586 24.7001L28.8305 25.4002C28.9174 26.2469 29.0722 26.8652 29.3693 27.5525ZM31.8845 12.1284C31.8853 3.94436 31.8854 3.37874 31.6333 2.9678C31.6146 2.93729 31.5945 2.90763 31.5729 2.87577C31.5549 2.84925 31.5359 2.8212 31.5158 2.78986C31.2957 2.44688 30.9372 2.14196 30.5374 1.95766C30.1154 1.76307 29.2391 1.76307 28.8171 1.95766C28.1761 2.25315 27.7295 2.78116 27.5596 3.44445C27.4763 3.7696 27.4682 4.67593 27.4865 11.6445C27.5068 19.3715 27.5089 19.4868 27.6336 20.0457C28.0303 21.8225 28.7824 22.8128 30.1334 23.3375C30.5611 23.5035 31.3138 23.6687 31.6905 23.6791L31.8843 23.6844V13.7352C31.8843 13.1693 31.8844 12.6343 31.8845 12.1284ZM41.9323 29.6842C43.279 29.023 43.6014 27.3152 42.5907 26.1965C42.1344 25.803 41.7769 25.5992 41.1073 25.5583C39.9609 25.564 38.8895 25.5524 37.7968 25.5406H37.7965C36.4157 25.5257 35.0009 25.5104 33.3577 25.5291C32.0178 25.5773 31.5765 25.5068 31.0394 25.4209H31.0394L31.0393 25.4209C30.9612 25.4084 30.881 25.3955 30.7957 25.3827C30.5906 25.3302 30.5863 25.3942 30.7506 26.046C30.8976 26.6291 31.2553 27.3623 31.613 27.8136C32.393 28.7979 33.9215 29.588 35.5013 29.8236C35.6937 29.8523 37.1396 29.8718 38.7144 29.867L41.0216 29.86C41.4628 29.8697 41.6212 29.8369 41.9323 29.6842Z" fill="#E94786"/>
<path fill-rule="evenodd" clip-rule="evenodd" d="M47.6646 30.3535C48.2114 30.956 48.9523 31.4017 49.7151 31.5869L49.7151 31.5869C50.2215 31.7098 51.0534 31.6979 51.5925 31.56C52.7425 31.2659 53.6634 30.5168 54.1977 29.4408C54.2661 29.3031 54.3231 29.1918 54.3707 29.0766C54.616 28.4824 54.6095 27.7843 54.6115 22.8195L54.6136 17.5105L59.3406 11.839C62.7642 7.73154 64.1209 6.06191 64.2607 5.78444C65.4074 3.50801 64.1493 0.753701 61.6736 0.120526C60.5019 -0.179135 59.1688 0.116913 58.2147 0.888673C57.9789 1.07935 56.7698 2.53565 54.3476 5.54634C52.4094 7.95547 50.7784 9.95404 50.7231 9.9876C50.6523 10.0306 50.5819 10.0263 50.4845 9.97299C50.4086 9.93139 48.7627 7.92403 46.827 5.51219C43.1189 0.891952 43.0535 0.819161 42.2428 0.409922C40.3468 -0.547207 37.9819 0.232212 36.959 2.15138C36.5506 2.91761 36.4091 4.08822 36.6239 4.92412C36.847 5.79268 36.9156 5.88549 43.1771 13.7897L49.1311 21.3057L48.8063 21.7047C47.8705 22.8543 47.0806 24.5184 46.7623 26.0108C46.628 26.6404 46.609 28.0862 46.7286 28.5758C46.864 29.1306 47.2915 29.9423 47.6646 30.3535ZM56.5051 12.4655C61.1845 6.84887 62.6736 5.02408 62.7599 4.80028C62.841 4.58989 62.8732 4.35426 62.8731 3.9697C62.8731 3.50683 62.8501 3.38351 62.7061 3.07493C62.1441 1.86999 60.6248 1.42221 59.5105 2.13308C59.3181 2.25578 58.3299 3.4428 55.7466 6.654C53.82 9.049 52.1421 11.1068 52.018 11.227C51.8939 11.3471 51.6549 11.5216 51.4869 11.6147C51.2149 11.7655 51.1229 11.784 50.6447 11.784C50.1753 11.784 50.0676 11.7633 49.7883 11.6192C49.6125 11.5286 49.3909 11.3944 49.2958 11.321C49.2006 11.2476 47.5893 9.28164 45.715 6.95226C43.8408 4.62288 42.2102 2.61352 42.0916 2.48702C41.2445 1.5835 39.8102 1.55851 38.9366 2.43205C38.3196 3.04907 38.1265 4.14327 38.4993 4.90971C38.6454 5.21018 50.2448 19.8817 50.3152 19.8552C50.3419 19.8451 53.1273 16.5198 56.5051 12.4655ZM51.527 29.7188C51.9464 29.5327 52.4173 29.0592 52.6207 28.6189L52.7921 28.2477L52.8086 23.9976C52.8176 21.66 52.8042 19.7489 52.7787 19.7508C52.7533 19.7526 52.0882 20.531 51.3008 21.4806C49.7575 23.3418 49.3665 23.9217 48.9501 24.967C48.5697 25.9222 48.4452 26.5131 48.4411 27.3828C48.3845 28.4905 48.9808 29.4665 49.9509 29.7982C50.3455 29.9246 51.1551 29.8838 51.527 29.7188Z" fill="#F2A03F"/>
</svg>
